<svg version="1.1" id="Layer_1" xmlns="http://www.w3.org/2000/svg" xmlns:xlink="http://www.w3.org/1999/xlink" x="0px" y="0px"
	 width="60" height="60" viewBox="835 380 252 252" enable-background="new 0 0 1920 1080" xml:space="preserve">

<path fill="#F4E200" opacity="1.000000" stroke="none" 
	d="
M847.999756,517.000000 
	C847.999756,491.009888 848.109375,465.519196 847.967041,440.029877 
	C847.840332,417.350677 864.412598,398.273804 885.619080,393.069519 
	C888.755920,392.299744 892.090271,392.047913 895.333923,392.043213 
	C939.649902,391.978607 983.967407,391.809387 1028.281494,392.106659 
	C1043.062988,392.205811 1054.846802,399.521942 1063.886719,410.832489 
	C1071.340210,420.158356 1074.199341,431.049927 1074.116455,443.145874 
	C1073.819702,486.460358 1074.005127,529.778137 1073.996582,573.094666 
	C1073.994629,583.532654 1069.511475,592.375549 1063.207642,600.142395 
	C1052.271118,613.616943 1037.472656,619.013367 1020.418762,619.005859 
	C980.600891,618.988342 940.782959,619.032471 900.965149,618.980591 
	C889.011658,618.964966 877.640320,616.387146 868.060364,608.935059 
	C856.086487,599.620728 848.150757,587.778137 848.031555,571.978333 
	C847.894592,553.819824 847.999756,535.659546 847.999756,517.000000 
M947.842773,560.588379 
	C943.416199,564.560425 941.835815,569.395386 944.266968,574.920166 
	C946.585632,580.189392 950.993958,582.442261 956.730957,582.184875 
	C958.721130,582.095520 960.723206,582.084106 962.711975,582.187622 
	C968.229370,582.474731 973.102844,581.192810 975.817871,575.951233 
	C978.543030,570.690186 977.476501,565.674561 973.841064,560.369751 
	C972.861145,557.364685 971.881287,554.359680 971.830322,551.195251 
	C973.809265,551.187012 975.801758,551.322021 977.763794,551.136047 
	C980.511292,550.875488 983.519104,550.976685 985.910034,549.850159 
	C990.513550,547.681091 992.387268,543.518616 991.989258,538.417725 
	C991.573242,533.087158 988.490784,529.885254 981.449341,527.372131 
	C977.627014,524.963989 973.804626,522.555908 970.848572,520.027954 
	C979.796265,519.929199 984.469971,517.114624 985.895569,510.966522 
	C987.276489,505.010956 984.576721,500.219360 977.572937,496.257172 
	C974.324463,493.751404 971.075989,491.245636 968.770813,488.551636 
	C981.763123,488.539337 994.755554,488.558807 1007.747681,488.501801 
	C1014.588440,488.471802 1018.679871,485.729340 1020.462524,480.179962 
	C1023.124084,471.894562 1017.290955,465.369843 1006.201660,464.526245 
	C998.394470,462.060455 990.587341,459.594635 983.739929,457.022156 
	C997.219116,457.015717 1010.698425,457.035492 1024.177368,456.971405 
	C1025.972778,456.962891 1027.871094,456.826294 1029.541260,456.237396 
	C1035.011353,454.308746 1037.881958,449.021759 1036.943848,443.074341 
	C1036.092285,437.675110 1031.255371,433.576538 1024.637817,433.559509 
	C982.037109,433.449921 939.436035,433.486145 896.835083,433.514740 
	C891.815979,433.518127 887.734497,435.467255 885.420166,440.148438 
	C882.007935,447.050079 885.523254,453.869232 894.611572,457.565338 
	C904.066589,460.321869 913.521667,463.078400 922.395264,466.206421 
	C913.170410,472.715271 913.703857,481.897339 924.082153,488.678162 
	C927.428955,491.199554 930.775757,493.720947 933.197327,496.448181 
	C929.888733,496.494537 926.556396,496.304810 923.276306,496.634521 
	C915.545227,497.411682 910.336975,505.389679 913.825500,512.172546 
	C915.513000,515.453552 919.635071,517.482300 923.111938,520.639893 
	C929.825806,524.737976 936.539734,528.836060 943.017395,533.655945 
	C940.793518,537.780029 941.219116,541.897766 943.122498,546.567871 
	C943.387329,546.829041 943.652100,547.090210 944.021423,547.388794 
	C944.021423,547.388794 943.989929,547.495361 943.977783,548.332764 
	C945.392334,552.220947 946.806824,556.109070 947.842773,560.588379 
z"/>
<path fill="#0298ED" opacity="1.000000" stroke="none" 
	d="
M894.064209,457.114990 
	C885.523254,453.869232 882.007935,447.050079 885.420166,440.148438 
	C887.734497,435.467255 891.815979,433.518127 896.835083,433.514740 
	C939.436035,433.486145 982.037109,433.449921 1024.637817,433.559509 
	C1031.255371,433.576538 1036.092285,437.675110 1036.943848,443.074341 
	C1037.881958,449.021759 1035.011353,454.308746 1029.541260,456.237396 
	C1027.871094,456.826294 1025.972778,456.962891 1024.177368,456.971405 
	C1010.698425,457.035492 997.219116,457.015717 982.824219,456.996216 
	C952.627014,457.018494 923.345642,457.066742 894.064209,457.114990 
z"/>
<path fill="#0298ED" opacity="1.000000" stroke="none" 
	d="
M1006.773560,464.868103 
	C1017.290955,465.369843 1023.124084,471.894562 1020.462524,480.179962 
	C1018.679871,485.729340 1014.588440,488.471802 1007.747681,488.501801 
	C994.755554,488.558807 981.763123,488.539337 967.940063,488.503601 
	C952.628540,488.336212 938.147827,488.216888 923.667114,488.097565 
	C913.703857,481.897339 913.170410,472.715271 923.099060,465.979828 
	C926.087830,465.504028 928.372009,465.046265 930.657898,465.037567 
	C956.029663,464.940979 981.401611,464.913910 1006.773560,464.868103 
z"/>
<path fill="#0298ED" opacity="1.000000" stroke="none" 
	d="
M977.910034,496.793915 
	C984.576721,500.219360 987.276489,505.010956 985.895569,510.966522 
	C984.469971,517.114624 979.796265,519.929199 969.956787,520.008423 
	C953.594971,520.018616 938.124939,520.048340 922.654846,520.078064 
	C919.635071,517.482300 915.513000,515.453552 913.825500,512.172546 
	C910.336975,505.389679 915.545227,497.411682 923.276306,496.634521 
	C926.556396,496.304810 929.888733,496.494537 934.085815,496.491028 
	C949.286194,496.620514 963.598145,496.707214 977.910034,496.793915 
z"/>
<path fill="#0298ED" opacity="1.000000" stroke="none" 
	d="
M943.989929,547.495361 
	C943.989929,547.495361 944.021423,547.388794 943.937378,547.079834 
	C943.584595,546.517883 943.315918,546.265015 943.047180,546.012085 
	C941.219116,541.897766 940.793518,537.780029 943.413574,533.142944 
	C946.393005,529.164795 949.867554,527.928406 954.141357,527.973633 
	C963.376404,528.071472 972.614197,527.913879 981.850830,527.860779 
	C988.490784,529.885254 991.573242,533.087158 991.989258,538.417725 
	C992.387268,543.518616 990.513550,547.681091 985.910034,549.850159 
	C983.519104,550.976685 980.511292,550.875488 977.763794,551.136047 
	C975.801758,551.322021 973.809265,551.187012 970.920044,551.179688 
	C965.590759,551.161072 961.162964,550.981140 956.755371,551.203125 
	C952.011108,551.441956 947.627319,550.866760 943.989929,547.495361 
z"/>
<path fill="#0298ED" opacity="1.000000" stroke="none" 
	d="
M973.858643,561.121338 
	C977.476501,565.674561 978.543030,570.690186 975.817871,575.951233 
	C973.102844,581.192810 968.229370,582.474731 962.711975,582.187622 
	C960.723206,582.084106 958.721130,582.095520 956.730957,582.184875 
	C950.993958,582.442261 946.585632,580.189392 944.266968,574.920166 
	C941.835815,569.395386 943.416199,564.560425 948.393311,560.222656 
	C957.412781,557.048035 965.769775,556.443054 973.858643,561.121338 
z"/>
<path fill="#AF990C" opacity="1.000000" stroke="none" 
	d="
M1006.487610,464.697144 
	C981.401611,464.913910 956.029663,464.940979 930.657898,465.037567 
	C928.372009,465.046265 926.087830,465.504028 923.389771,465.794067 
	C913.521667,463.078400 904.066589,460.321869 894.337891,457.340149 
	C923.345642,457.066742 952.627014,457.018494 982.344299,457.049530 
	C990.587341,459.594635 998.394470,462.060455 1006.487610,464.697144 
z"/>
<path fill="#AF990C" opacity="1.000000" stroke="none" 
	d="
M981.650085,527.616455 
	C972.614197,527.913879 963.376404,528.071472 954.141357,527.973633 
	C949.867554,527.928406 946.393005,529.164795 943.531738,532.781982 
	C936.539734,528.836060 929.825806,524.737976 922.883423,520.359009 
	C938.124939,520.048340 953.594971,520.018616 969.523682,520.068359 
	C973.804626,522.555908 977.627014,524.963989 981.650085,527.616455 
z"/>
<path fill="#AF990C" opacity="1.000000" stroke="none" 
	d="
M977.741455,496.525543 
	C963.598145,496.707214 949.286194,496.620514 934.548462,496.388092 
	C930.775757,493.720947 927.428955,491.199554 923.874634,488.387878 
	C938.147827,488.216888 952.628540,488.336212 967.468384,488.597687 
	C971.075989,491.245636 974.324463,493.751404 977.741455,496.525543 
z"/>
<path fill="#AF990C" opacity="1.000000" stroke="none" 
	d="
M973.849854,560.745544 
	C965.769775,556.443054 957.412781,557.048035 948.582642,559.927063 
	C946.806824,556.109070 945.392334,552.220947 943.983887,547.914062 
	C947.627319,550.866760 952.011108,551.441956 956.755371,551.203125 
	C961.162964,550.981140 965.590759,551.161072 970.455566,551.259399 
	C971.881287,554.359680 972.861145,557.364685 973.849854,560.745544 
z"/>
<path fill="#AF990C" opacity="1.000000" stroke="none" 
	d="
M943.084839,546.289978 
	C943.315918,546.265015 943.584595,546.517883 943.885132,547.061096 
	C943.652100,547.090210 943.387329,546.829041 943.084839,546.289978 
z"/>
</svg>
